PathFileType	4	(X/Y/Z)	OpenSim_Sub04_EMGStiffKnee_Magnet.trc
DataRate	CameraRate	NumFrames	NumMarkers	Units	OrigDataRate	OrigDataStartFrame	OrigNumFrames
100	100	33	8	m	100	7243	8277
Frame#	Time	torso_imu_offset_imu	pelvis_imu_offset_imu	tibia_r_imu_offset_imu	femur_r_imu_offset_imu	tibia_l_imu_offset_imu	femur_l_imu_offset_imu	toes_r_imu_offset_imu	toes_l_imu_offset_imu
				X1	Y1	Z1	X2	Y2	Z2	X3	Y3	Z3	X4	Y4	Z4	X5	Y5	Z5	X6	Y6	Z6	X7	Y7	Z7	X8		Y8	Z8	

7243	72.42000000	0.92104465	0.27797040	-0.10681825	-0.56054677	0.17499955	-0.73759579	-0.49612650	-0.63931274	-0.16800762	-0.85666800	0.04618564	-0.07381021	-0.49161038	0.58916402	0.38014380	-0.52991833	0.35912945	0.54480295	-0.70091837	-0.13627281	-0.36745636	-0.70931417	-0.37028536	-0.27554377
7244	72.43000000	0.92306730	0.28167495	-0.11106875	-0.55806490	0.17351203	-0.73822086	-0.51961281	-0.61710665	-0.17695110	-0.85432151	0.03953105	-0.07823601	-0.48643588	0.60028175	0.37787217	-0.52379097	0.36257453	0.54530510	-0.69293169	-0.11699241	-0.37979070	-0.71110245	-0.36520859	-0.28445029
7245	72.44000000	0.91937201	0.28228054	-0.11144550	-0.55857199	0.17419495	-0.73951491	-0.53641613	-0.59981152	-0.18339061	-0.85724085	0.04379691	-0.07924749	-0.47911959	0.60754861	0.37493788	-0.52222865	0.36855066	0.53770704	-0.69074551	-0.10187204	-0.38947321	-0.71461589	-0.36550628	-0.29069493
7246	72.45000000	0.92123414	0.28232064	-0.11258426	-0.55847614	0.17215741	-0.74067050	-0.55765429	-0.57712251	-0.18610320	-0.85309998	0.03738519	-0.07730864	-0.47531915	0.61377833	0.37338293	-0.52236568	0.38063133	0.53543325	-0.68321641	-0.08928981	-0.40316644	-0.72679125	-0.36118381	-0.28967597
7247	72.46000000	0.92324806	0.28179891	-0.11396884	-0.55832196	0.16689992	-0.74036898	-0.57171107	-0.56176071	-0.19432709	-0.85517675	0.03569707	-0.07636368	-0.47165281	0.62169372	0.37304551	-0.51782526	0.38989927	0.53821233	-0.68164373	-0.07981948	-0.42022414	-0.73384211	-0.35251049	-0.29608457
7248	72.47000000	0.91791027	0.28436447	-0.10649825	-0.55830253	0.15874804	-0.73898598	-0.58561419	-0.55187230	-0.20083517	-0.85583189	0.03641129	-0.06755513	-0.46362924	0.62967081	0.37341565	-0.51122427	0.39290097	0.53425194	-0.67757818	-0.06753876	-0.42362761	-0.73518080	-0.34745811	-0.29688976
7249	72.48000000	0.91292488	0.28631108	-0.11235178	-0.55685679	0.15370380	-0.73703899	-0.59281892	-0.53665898	-0.20167459	-0.85055467	0.03420501	-0.07214756	-0.45355487	0.63571544	0.36852038	-0.50395917	0.39964121	0.53480130	-0.67219057	-0.06686624	-0.42667742	-0.74654805	-0.34313869	-0.29482764
7250	72.49000000	0.91391195	0.28172610	-0.11465789	-0.55558016	0.15029450	-0.73900657	-0.59697225	-0.53525804	-0.20206322	-0.85312455	0.03010993	-0.07320775	-0.44313067	0.64366108	0.36518033	-0.50260080	0.40919993	0.53500822	-0.67421867	-0.07502953	-0.42328072	-0.75985776	-0.33882701	-0.29653432
7251	72.50000000	0.92126543	0.28066240	-0.11154177	-0.55505067	0.14328231	-0.74525862	-0.60644845	-0.53550534	-0.20018765	-0.85269950	0.03096492	-0.06226919	-0.43655018	0.65173275	0.36070129	-0.50303199	0.41515868	0.52517892	-0.67533924	-0.08494864	-0.42170370	-0.76113880	-0.33405391	-0.29009134
7252	72.51000000	0.92067959	0.28294166	-0.11605551	-0.55676478	0.13815025	-0.74263556	-0.60601781	-0.53512358	-0.19384167	-0.85277543	0.03749903	-0.06019163	-0.41958534	0.65807017	0.35977226	-0.50358312	0.42116199	0.52580621	-0.67297961	-0.09835817	-0.41691409	-0.76641691	-0.33234172	-0.28132094
7253	72.52000000	0.91621870	0.28038346	-0.11234843	-0.54805784	0.13422445	-0.74025224	-0.59850832	-0.53692209	-0.18826279	-0.85362877	0.03971308	-0.05130328	-0.41016447	0.66544880	0.35691992	-0.50186214	0.43126063	0.51667650	-0.68150956	-0.10633407	-0.39040718	-0.77860129	-0.33096409	-0.27706914
7254	72.53000000	0.91743522	0.28284186	-0.11112614	-0.54375861	0.12988206	-0.74554359	-0.59217091	-0.54335333	-0.18347828	-0.85035276	0.04290654	-0.04193749	-0.40524078	0.67631962	0.35241042	-0.49674880	0.43649812	0.50581542	-0.69802704	-0.10469319	-0.36740330	-0.79059541	-0.32518466	-0.26778061
7255	72.54000000	0.92243130	0.28081472	-0.12106513	-0.54262448	0.12627718	-0.74546904	-0.57855367	-0.56053686	-0.17999797	-0.85213658	0.03984990	-0.03491212	-0.39455952	0.69137659	0.35035014	-0.50229240	0.44634138	0.49897080	-0.70097330	-0.11536705	-0.34948287	-0.79766470	-0.32541827	-0.25568992
7256	72.55000000	0.91911432	0.27398425	-0.12522633	-0.53714622	0.11986161	-0.74722001	-0.56157093	-0.57732100	-0.16638534	-0.85346504	0.04506860	-0.03142439	-0.38489651	0.70459676	0.34402865	-0.49783524	0.46007973	0.49646912	-0.69686988	-0.14364786	-0.33677896	-0.80585766	-0.32358026	-0.23936722
7257	72.56000000	0.91722454	0.27275528	-0.12400293	-0.53465039	0.11894702	-0.75310968	-0.54704900	-0.59279539	-0.15555905	-0.85338815	0.05111581	-0.02511821	-0.36916744	0.70807049	0.34079640	-0.49388328	0.46513846	0.49815549	-0.69620792	-0.15559252	-0.33480491	-0.81359317	-0.32538908	-0.22257182
7258	72.57000000	0.92306565	0.27150224	-0.12565120	-0.53009458	0.12218568	-0.75444102	-0.53865433	-0.60761958	-0.15742271	-0.85426136	0.05118854	-0.02072041	-0.35748897	0.71614404	0.33721802	-0.49696828	0.47108368	0.49122656	-0.69459893	-0.15945808	-0.32644390	-0.82136365	-0.32679893	-0.19755476
7259	72.58000000	0.91920024	0.27185389	-0.13303675	-0.53280740	0.12128352	-0.75839372	-0.53328854	-0.61286392	-0.14742985	-0.85652141	0.05122828	-0.01721367	-0.34687269	0.72722062	0.33822390	-0.49495974	0.47450071	0.48466164	-0.69458750	-0.17123567	-0.31864748	-0.82942122	-0.32710344	-0.17419052
7260	72.59000000	0.92439651	0.27121197	-0.13285116	-0.53176020	0.12244688	-0.75373408	-0.52323063	-0.61667601	-0.13139828	-0.85142938	0.04391723	-0.00692241	-0.32710253	0.73349411	0.33247062	-0.49490439	0.48177325	0.47808501	-0.69459508	-0.17381900	-0.31501031	-0.83602073	-0.32593968	-0.14383140
7261	72.60000000	0.92468971	0.26726100	-0.13414172	-0.53378541	0.12553085	-0.74870306	-0.51853468	-0.62950843	-0.12690304	-0.85232458	0.04464854	-0.00365256	-0.31255246	0.73718057	0.32557713	-0.49838507	0.48057893	0.47714184	-0.69424042	-0.17694707	-0.31147902	-0.84157162	-0.32540733	-0.11404036
7262	72.61000000	0.91874754	0.26545627	-0.14246971	-0.53252941	0.13083133	-0.75569441	-0.50532239	-0.64193203	-0.11529255	-0.85304228	0.04827147	0.00102466	-0.29695564	0.74362686	0.33180373	-0.50404670	0.47942655	0.47162115	-0.68853885	-0.18013011	-0.31685273	-0.83904354	-0.32232261	-0.08906302
7263	72.62000000	0.91942576	0.26323028	-0.14479492	-0.53018795	0.13111232	-0.75967755	-0.49243228	-0.65429671	-0.10409625	-0.84872690	0.04342608	0.00620880	-0.28090549	0.75370437	0.33539820	-0.51066387	0.48562750	0.45348094	-0.68768217	-0.17525550	-0.31487905	-0.83966845	-0.31645512	-0.05561630
7264	72.63000000	0.92216668	0.26169987	-0.14746084	-0.53601891	0.13204189	-0.75686450	-0.48719664	-0.66049849	-0.09960919	-0.85391685	0.03480057	0.00902251	-0.26890529	0.75830865	0.32931983	-0.51945795	0.48568844	0.44736697	-0.69061573	-0.18168426	-0.31251758	-0.84753889	-0.31944955	-0.01940516
7265	72.64000000	0.92260829	0.26373114	-0.14765410	-0.53237104	0.13393212	-0.75110170	-0.47348218	-0.66855257	-0.09988275	-0.85297430	0.02513551	0.01544053	-0.25178037	0.76362667	0.32165684	-0.52371560	0.48565212	0.44165381	-0.68379666	-0.18364110	-0.31893289	-0.84573799	-0.31205680	0.01778958
7266	72.65000000	0.91813143	0.26171647	-0.15159966	-0.52907579	0.13078190	-0.75056921	-0.46439402	-0.67994036	-0.10025543	-0.85036518	0.01696988	0.02324001	-0.23325098	0.77196193	0.32371931	-0.53225554	0.48527908	0.42893267	-0.68488475	-0.18091986	-0.32486649	-0.84073765	-0.30137226	0.05518172
7267	72.66000000	0.92531386	0.25526062	-0.15384416	-0.52741005	0.13648843	-0.75089470	-0.46331363	-0.67971123	-0.10297766	-0.84856247	0.00164934	0.02804270	-0.22006034	0.77932337	0.32539154	-0.54684687	0.48635019	0.41958163	-0.68652745	-0.18596985	-0.32538679	-0.83995591	-0.29471027	0.09076740
7268	72.67000000	0.92565763	0.25319156	-0.15245833	-0.52552815	0.13375077	-0.75799773	-0.46317197	-0.67708233	-0.10456257	-0.84986721	-0.01529612	0.03203858	-0.20379890	0.78002348	0.32668052	-0.55739473	0.48774839	0.40958592	-0.68393407	-0.19141074	-0.33165585	-0.84277307	-0.27814877	0.12636354
7269	72.68000000	0.92399638	0.25547350	-0.15710000	-0.52803936	0.13441762	-0.76295212	-0.46521798	-0.67668919	-0.11021105	-0.84840259	-0.03100925	0.03539271	-0.18788893	0.77700470	0.33239451	-0.56646984	0.47870173	0.40563445	-0.68671240	-0.18727281	-0.34289355	-0.84040430	-0.26087888	0.15505855
7270	72.69000000	0.92428634	0.25366318	-0.15923691	-0.53178004	0.13396912	-0.76328279	-0.46175296	-0.68116529	-0.11914536	-0.84441332	-0.04398502	0.03458131	-0.17361062	0.77657095	0.34056942	-0.57067792	0.46829358	0.40476380	-0.69009597	-0.18889341	-0.33860819	-0.83830323	-0.24947370	0.17256139
7271	72.70000000	0.91834887	0.25230604	-0.15828398	-0.53252612	0.12829152	-0.76417658	-0.45409629	-0.68162704	-0.11511427	-0.84871477	-0.05748329	0.03950905	-0.15947484	0.78159950	0.33932491	-0.57714950	0.46813084	0.40572848	-0.69227796	-0.19191969	-0.34133880	-0.83943267	-0.23262193	0.18991313
7272	72.71000000	0.92520631	0.24587178	-0.16004803	-0.53175175	0.13545792	-0.75905038	-0.45135414	-0.68906618	-0.11775556	-0.84981072	-0.07202796	0.04322435	-0.15122615	0.77977232	0.34326642	-0.57909772	0.46408256	0.40167242	-0.69261657	-0.18893546	-0.35450859	-0.84034323	-0.22122309	0.18765709
7273	72.72000000	0.92763965	0.24278420	-0.15925716	-0.52937275	0.13544979	-0.76053340	-0.44236128	-0.69488863	-0.12339688	-0.84402260	-0.08723539	0.04690204	-0.14363983	0.77628261	0.34763578	-0.57759124	0.46093993	0.39825748	-0.69573264	-0.19375697	-0.35915721	-0.84567342	-0.21091607	0.18030640
7274	72.73000000	0.92368445	0.24347331	-0.16050446	-0.53419837	0.13448004	-0.75954400	-0.43795513	-0.69415868	-0.12220780	-0.84053363	-0.09728086	0.05285774	-0.14240804	0.78053163	0.33686883	-0.58231018	0.45778561	0.40419502	-0.70099750	-0.19518402	-0.36514308	-0.85216010	-0.20446198	0.16435820
7275	72.74000000	0.92581242	0.24304158	-0.16286675	-0.53445440	0.13204805	-0.76165283	-0.43918171	-0.69870202	-0.12236040	-0.84001375	-0.10372067	0.05453263	-0.15730149	0.78570252	0.32335291	-0.58233417	0.45352549	0.40982968	-0.70062635	-0.19762318	-0.37439235	-0.85518292	-0.20005737	0.14129429
